<svg width="100" height="82" viewBox="0 0 100 82" fill="none" xmlns="http://www.w3.org/2000/svg">
<g clip-path="url(#clip0)">
<path d="M11.4725 13.7621C13.7463 13.7621 15.5897 11.9224 15.5897 9.653C15.5897 7.38363 13.7463 5.54395 11.4725 5.54395C9.19857 5.54395 7.35522 7.38363 7.35522 9.653C7.35522 11.9224 9.19857 13.7621 11.4725 13.7621Z" stroke="#27AE60" stroke-width="2" stroke-miterlimit="10"/>
<path d="M9.3091 35.8391L5.49891 39.6417L9.3091 35.8391ZM14.9197 32.5519L2.16325 45.283L14.9197 32.5519ZM18.3391 31.354L1.0188 48.6538L18.3391 31.354ZM21.1444 30.8386L0.488446 51.4535L21.1444 30.8386ZM23.6008 30.6575L0.307007 53.9189L23.6008 30.6575ZM25.792 30.6993L0.348878 56.1337L25.792 30.6993ZM27.8855 30.9361L0.586143 58.1812L27.8855 30.9361ZM29.7836 31.3122L0.949018 60.0895L29.7836 31.3122ZM31.5561 31.8136L1.45146 61.8028L31.5561 31.8136ZM33.2309 32.4126L2.06556 63.516L33.2309 32.4126ZM34.7941 33.123L2.69361 65.0761L34.7941 33.123ZM36.2735 33.9448L3.57288 66.5525L36.2735 33.9448ZM37.6692 34.8084L4.45216 67.9454L37.6692 34.8084ZM38.9811 35.7695L5.41517 69.199L38.9811 35.7695ZM40.2093 36.7445L6.46193 70.4944L40.2093 36.7445ZM41.3538 37.9285L7.64825 71.6366L41.3538 37.9285ZM42.5401 39.1264L8.77874 72.7231L42.5401 39.1264ZM43.4473 40.38L10.0488 73.726L43.4473 40.38ZM44.3684 41.6893L11.4026 74.6453L44.3684 41.6893ZM45.2198 43.1658L12.8402 75.481L45.2198 43.1658ZM45.9734 44.684L14.3614 76.2471L45.9734 44.684ZM46.6294 46.2998L15.9246 76.9436L46.6294 46.2998ZM47.1877 48.013L17.6971 77.445L47.1877 48.013ZM47.6343 49.8517L19.5254 77.8908L47.6343 49.8517ZM47.9274 51.8157L21.5073 78.1972L47.9274 51.8157ZM48.1228 53.9468L23.6287 78.3365L48.1228 53.9468ZM48.0111 56.2312L25.9734 78.2808L48.0111 56.2312ZM47.6762 58.8916L28.5834 77.9465L47.6762 58.8916ZM46.8667 61.956L31.6538 77.1247L46.8667 61.956ZM45.136 65.9815L35.6873 75.4114L45.136 65.9815ZM24.187 30.6436C19.463 30.6519 14.8475 32.0574 10.9236 34.6827C6.99983 37.308 3.9438 41.0352 2.14174 45.3933C0.339687 49.7514 -0.127522 54.5448 0.799153 59.1678C1.72583 63.7908 4.0048 68.0359 7.34809 71.3667C10.6914 74.6975 14.9489 76.9645 19.5828 77.8813C24.2166 78.798 29.0187 78.3233 33.3823 76.5172C37.7459 74.7111 41.4752 71.6547 44.0988 67.7341C46.7225 63.8134 48.1228 59.2046 48.1228 54.49C48.1228 51.355 47.5034 48.2506 46.3 45.3547C45.0966 42.4588 43.3328 39.8282 41.1096 37.6133C38.8864 35.3984 36.2474 33.6427 33.3437 32.4468C30.4399 31.2508 27.3283 30.6381 24.187 30.6436Z" stroke="#27AE60" stroke-width="0.41" stroke-miterlimit="10"/>
<path d="M28.2484 60.6052C23.7224 53.2717 21.9204 44.5848 23.157 36.0606C24.3935 27.5365 28.5901 19.7163 35.0143 13.9649C41.4384 8.21356 49.6823 4.89621 58.3071 4.59182C66.9319 4.28744 75.3899 7.01533 82.2052 12.2995" stroke="#020202" stroke-width="0.63" stroke-miterlimit="10"/>
<path d="M79.5115 0.111328L83.0984 13.4692L68.8067 12.2713" stroke="#020202" stroke-width="0.63" stroke-miterlimit="10"/>
<path d="M47.732 41.9402H53.5799V45.7846H40.1535V44.907C42.9449 41.7219 44.9081 39.4004 46.0432 37.9425C46.9396 36.8853 47.7427 35.7529 48.4438 34.5578C48.8234 33.8793 49.034 33.1198 49.0579 32.3431C49.0534 31.9046 48.9202 31.477 48.6747 31.1133C48.4292 30.7496 48.0823 30.4657 47.6768 30.2967C47.2714 30.1277 46.8252 30.0811 46.3934 30.1626C45.9617 30.244 45.5633 30.4501 45.2477 30.7552C45.0347 30.9708 44.8689 31.2282 44.7608 31.5112C44.6527 31.7941 44.6046 32.0964 44.6197 32.3988V32.747H40.4326V32.3431C40.4031 31.5343 40.5416 30.7282 40.8394 29.9755C41.1373 29.2228 41.588 28.5398 42.1633 27.9694C42.773 27.394 43.4926 26.9471 44.279 26.6551C45.0655 26.3632 45.9028 26.2322 46.7411 26.27C47.8937 26.2575 49.0326 26.5201 50.0628 27.0361C51.0105 27.52 51.7999 28.2643 52.3377 29.1812C52.8799 30.1262 53.1593 31.1985 53.1472 32.2874C53.1068 33.6575 52.7178 34.9948 52.0167 36.1735C50.77 38.2237 49.3356 40.1541 47.732 41.9402Z" fill="#020202"/>
<path d="M70.2163 38.5416V42.1074H68.5415V45.7847H64.6755V42.1074H55.492V41.397L61.8004 26.6602H65.8618L60.7537 38.5416H64.8709L65.4571 33.945H68.5415V38.5416H70.2163Z" fill="#020202"/>
<path d="M71.6539 48.1249L80.4466 23.9023H84.8569L76.0363 48.1249H71.6539Z" fill="#020202"/>
<path d="M86.2945 26.6602H100.014V27.2173L92.7844 45.7847H88.5974L94.7244 30.3513H86.2945V26.6602Z" fill="#020202"/>
<path d="M83.4613 81.624L11.4026 80.8022L24.4522 75.8574L96.5108 76.6653L83.4613 81.624Z" fill="white"/>
<path d="M83.5311 82H83.4613L9.35101 81.1643L24.4662 75.4673L98.5764 76.303L83.5311 82ZM13.4543 80.426L83.3915 81.3035L94.4731 77.1248L24.522 76.317L13.4543 80.426Z" fill="#7F8783"/>
<path d="M83.4613 80.5098L11.4026 79.688L24.4662 74.7432L96.5248 75.565L83.4613 80.5098Z" fill="white"/>
<path d="M83.545 80.8994H83.4613L9.35101 80.0498L24.4662 74.3389L98.5764 75.1885L83.545 80.8994ZM13.4682 79.3255L83.4054 80.1194L94.4731 75.9407L24.5359 75.1328L13.4682 79.3255Z" fill="#7F8783"/>
<path d="M83.4752 79.395L11.4166 78.5732L24.4662 73.6284L96.5248 74.4502L83.4752 79.395Z" fill="white"/>
<path d="M83.545 79.7854L9.43475 78.9357L24.5499 73.2388L98.6602 74.0884L83.545 79.7854ZM13.4682 78.2114L83.4054 79.0054L94.4731 74.8267L24.5359 74.0188L13.4682 78.2114Z" fill="#7F8783"/>
<path d="M83.4753 78.2808L11.4166 77.4729L24.4801 72.5142L96.5387 73.336L83.4753 78.2808Z" fill="white"/>
<path d="M83.559 78.6709H83.4753L9.36499 77.8351L24.4801 72.1382L98.5904 72.9739L83.559 78.6709ZM13.4822 77.1248L83.4194 77.9326L94.4871 73.754L24.5499 72.9461L13.4822 77.1248Z" fill="#7F8783"/>
<path d="M83.4892 77.1807L11.4305 76.3589L24.4801 71.4141L96.5387 72.2359L83.4892 77.1807Z" fill="white"/>
<path d="M83.559 77.5705L9.44873 76.7209L24.5639 71.0239L98.6741 71.8597L83.559 77.5705ZM13.4822 75.9966L83.4194 76.7905L94.4871 72.6118L24.5499 71.8179L13.4822 75.9966Z" fill="#7F8783"/>
<path d="M83.4892 76.0664L11.4305 75.2446L24.4801 70.2998L96.5527 71.1216L83.4892 76.0664Z" fill="white"/>
<path d="M83.5729 76.4563H83.4892L9.37891 75.6066L24.494 69.9097L98.6043 70.7593L83.5729 76.4563ZM13.4961 74.8823L83.4333 75.732L94.501 71.5533L24.5638 70.7593L13.4961 74.8823Z" fill="#7F8783"/>
<path d="M83.5031 74.9517L11.4445 74.1438L24.4941 69.1851L96.5527 70.0069L83.5031 74.9517Z" fill="white"/>
<path d="M83.5729 75.3421H83.5031L9.39288 74.5063L24.508 68.7676L98.6183 69.6033L83.5729 75.3421ZM13.4962 73.7681L83.4334 74.576L94.5011 70.3973L24.5639 69.6033L13.4962 73.7681Z" fill="#7F8783"/>
<path d="M83.5031 73.8516L11.4445 73.0298L24.4941 68.085L96.5666 68.9068L83.5031 73.8516Z" fill="white"/>
<path d="M83.5729 74.2275H83.5031L9.39288 73.3918L24.508 67.6948L98.6183 68.5306L83.5729 74.2275ZM13.4962 72.6675L83.4334 73.4614L94.515 69.2827L24.5778 68.4888L13.4962 72.6675Z" fill="#7F8783"/>
<path d="M83.5171 72.7373L11.4445 71.9155L24.508 66.9707L96.5666 67.7925L83.5171 72.7373Z" fill="white"/>
<path d="M83.5869 73.1272L9.46265 72.2775L24.5778 66.5806L98.6881 67.4302L83.5869 73.1272ZM13.5101 71.5532L83.4473 72.3472L94.515 68.1685L24.5778 67.3745L13.5101 71.5532Z" fill="#7F8783"/>
<path d="M83.5171 71.623L11.4585 70.8152L24.508 65.8564L96.5667 66.6783L83.5171 71.623Z" fill="white"/>
<path d="M83.5869 72.0129L9.47662 71.1772L24.5918 65.4663L98.702 66.316L83.5869 72.0129ZM13.5101 70.439L83.4473 71.2329L94.529 67.0542L24.5918 66.2603L13.5101 70.439Z" fill="#7F8783"/>
<path d="M83.5171 70.5225L11.4585 69.7007L24.522 64.7559L96.5806 65.5777L83.5171 70.5225Z" fill="white"/>
<path d="M83.6008 70.8984L9.47662 70.0627L24.5918 64.3657L98.702 65.2015L83.6008 70.8984ZM13.5241 69.3384L83.4613 70.1602L94.529 65.9815L24.5918 65.1736L13.5241 69.3384Z" fill="#7F8783"/>
<path d="M83.531 69.4082L11.4724 68.5864L24.522 63.6416L96.5806 64.4634L83.531 69.4082Z" fill="white"/>
<path d="M83.6009 69.7981L9.4906 68.9485L24.536 63.1958L98.6462 64.0455L83.6009 69.7981ZM13.5241 68.2242L83.4613 69.0181L94.529 64.8394L24.5918 64.0315L13.5241 68.2242Z" fill="#7F8783"/>
<path d="M83.531 68.2939L11.4724 67.4861L24.5359 62.5273L96.5945 63.3492L83.531 68.2939Z" fill="white"/>
<path d="M83.6148 68.6838H83.531L9.42078 67.8342L24.5359 62.1372L98.6462 62.9869L83.6148 68.6838ZM13.538 67.1099L83.4752 67.9038L94.5429 63.7251L24.6057 62.9172L13.538 67.1099Z" fill="#7F8783"/>
<path d="M53.4124 66.8454C58.0681 66.8454 61.8423 66.2031 61.8423 65.4108C61.8423 64.6184 58.0681 63.9761 53.4124 63.9761C48.7567 63.9761 44.9825 64.6184 44.9825 65.4108C44.9825 66.2031 48.7567 66.8454 53.4124 66.8454Z" fill="white"/>
<path d="M53.4124 67.1656C53.0635 67.1656 44.6755 67.1656 44.6755 65.4106C44.6755 63.6555 53.0495 63.6694 53.4124 63.6694C53.7753 63.6694 62.1493 63.6694 62.1493 65.4106C62.1493 67.1517 53.7753 67.1656 53.4124 67.1656ZM53.4124 64.2823C48.3043 64.2823 45.4571 65.0206 45.2896 65.4245C45.4571 65.8145 48.3043 66.5528 53.4124 66.5528C58.5206 66.5528 61.3119 65.8284 61.5213 65.4106C61.3119 64.9927 58.4648 64.2823 53.4124 64.2823Z" fill="#7F8783"/>
<path d="M32.0586 65.8565H19.7488L24.9267 63.9761H37.2226L32.0586 65.8565Z" fill="white"/>
<path d="M32.1144 66.1627H18.0181L24.9965 63.6694H38.9672L32.1144 66.1627ZM21.4934 65.5499H32.0028L35.492 64.2823H24.9825L21.4934 65.5499Z" fill="#7F8783"/>
<path d="M80.0837 66.8034H67.7878L74.6685 64.7559H86.9784L80.0837 66.8034Z" fill="white"/>
<path d="M80.1396 67.1101H65.6804L74.6406 64.4497H89.0858L80.1396 67.1101ZM69.8953 66.4973H80.0558L84.8709 65.1044H74.7243L69.8953 66.4973Z" fill="#7F8783"/>
</g>
<defs>
<clipPath id="clip0">
<rect width="100" height="82" fill="white"/>
</clipPath>
</defs>
</svg>
