<svg width="97" height="75" viewBox="0 0 97 75" fill="none" xmlns="http://www.w3.org/2000/svg">
<path d="M9.32973 14.9952L5.49309 18.8289L9.32973 14.9952ZM14.9812 11.6467L2.13147 24.4581L14.9812 11.6467ZM18.3793 10.5063L0.986563 27.8915L18.3793 10.5063ZM21.2538 9.97251L0.450653 30.694L21.2538 9.97251ZM23.7263 9.79053L0.255776 33.1689L23.7263 9.79053ZM25.9674 9.83906L0.304494 35.4012L25.9674 9.83906ZM28.0379 10.0696L0.548091 37.4636L28.0379 10.0696ZM29.9502 10.4335L0.913485 39.3683L29.9502 10.4335ZM31.7771 10.9552L1.42504 41.1517L31.7771 10.9552ZM33.4214 11.5618L2.03403 42.8138L33.4214 11.5618ZM34.9926 12.2655L2.75264 44.4031L34.9926 12.2655ZM36.4907 13.0783L3.60522 45.8347L36.4907 13.0783ZM37.867 13.9639L4.44563 47.2663L37.867 13.9639ZM39.2068 14.9224L5.42002 48.5887L39.2068 14.9224ZM40.4491 15.9778L6.46748 49.8261L40.4491 15.9778ZM41.6184 17.0697L7.58802 50.9908L41.6184 17.0697ZM42.739 18.2951L8.79382 52.0705L42.739 18.2951ZM43.7133 19.5689L10.0727 53.0775L43.7133 19.5689ZM44.6512 20.9277L11.4368 53.9995L44.6512 20.9277ZM45.5403 22.3714L12.8862 54.8488L45.5403 22.3714ZM46.2589 23.8879L14.4209 55.6131L46.2589 23.8879ZM46.9288 25.5136L16.0408 56.2682L46.9288 25.5136ZM47.4769 27.2363L17.7825 56.8263L47.4769 27.2363ZM47.9275 29.0804L19.5973 57.263L47.9275 29.0804ZM48.2199 31.0579L21.607 57.5785L48.2199 31.0579ZM48.4026 33.2053L23.7628 57.7483L48.4026 33.2053ZM48.3051 35.5468L26.1135 57.6634L48.3051 35.5468ZM47.9641 38.1794L28.7443 57.3237L47.9641 38.1794ZM47.1724 41.2488L31.838 56.5351L47.1724 41.2488ZM45.4185 45.2766L35.8939 54.7638L45.4185 45.2766ZM24.3109 9.79053C19.5503 9.79053 14.8967 11.1968 10.9386 13.8315C6.98044 16.4662 3.89569 20.211 2.07445 24.5922C0.253208 28.9733 -0.222693 33.7941 0.706937 38.4447C1.63657 43.0953 3.92997 47.3668 7.29706 50.719C10.6641 54.0712 14.9537 56.3534 19.6231 57.277C24.2925 58.2006 29.132 57.7242 33.5295 55.9079C37.927 54.0916 41.685 51.017 44.3281 47.0731C46.9711 43.1292 48.3806 38.4931 48.3782 33.7512C48.3782 30.6036 47.7556 27.4869 46.546 24.5791C45.3363 21.6712 43.5633 19.0293 41.3283 16.8042C39.0933 14.579 36.44 12.8144 33.5201 11.6109C30.6002 10.4075 27.4709 9.78894 24.3109 9.79053V9.79053Z" stroke="#27AE60" stroke-width="0.42" stroke-miterlimit="10"/>
<path d="M89.4363 73.7868C91.4207 73.7868 93.0294 72.1844 93.0294 70.2078C93.0294 68.2313 91.4207 66.6289 89.4363 66.6289C87.452 66.6289 85.8433 68.2313 85.8433 70.2078C85.8433 72.1844 87.452 73.7868 89.4363 73.7868Z" stroke="#27AE60" stroke-width="2" stroke-miterlimit="10"/>
<path d="M68.889 0.327637H26.8687C25.0255 0.327637 23.5314 1.81592 23.5314 3.6518V61.7398C23.5314 63.5757 25.0255 65.064 26.8687 65.064H68.889C70.7321 65.064 72.2263 63.5757 72.2263 61.7398V3.6518C72.2263 1.81592 70.7321 0.327637 68.889 0.327637Z" fill="white" stroke="#020202" stroke-width="0.53" stroke-miterlimit="10"/>
<path d="M28.7931 9.6084H66.9768" stroke="#020202" stroke-width="0.53" stroke-miterlimit="10"/>
<path d="M28.7931 28.4375H66.9768" stroke="#020202" stroke-width="0.53" stroke-miterlimit="10"/>
<path d="M28.7931 32.6958H66.9768" stroke="#020202" stroke-width="0.53" stroke-miterlimit="10"/>
<path d="M28.7931 36.9419H66.9768" stroke="#020202" stroke-width="0.53" stroke-miterlimit="10"/>
<path d="M28.7931 41.2002H66.9768" stroke="#020202" stroke-width="0.53" stroke-miterlimit="10"/>
<path d="M28.7931 45.4585H66.9768" stroke="#020202" stroke-width="0.53" stroke-miterlimit="10"/>
<path d="M28.7931 49.7168H66.9768" stroke="#020202" stroke-width="0.53" stroke-miterlimit="10"/>
<path d="M28.7931 53.9629H66.9768" stroke="#020202" stroke-width="0.53" stroke-miterlimit="10"/>
<path d="M28.7931 58.2217H66.9768" stroke="#020202" stroke-width="0.53" stroke-miterlimit="10"/>
<path d="M92.5422 16.8271H60.1439C57.8703 16.8271 56.0271 18.6631 56.0271 20.9278V37.5729C56.0271 39.8376 57.8703 41.6735 60.1439 41.6735H92.5422C94.8158 41.6735 96.659 39.8376 96.659 37.5729V20.9278C96.659 18.6631 94.8158 16.8271 92.5422 16.8271Z" fill="white" stroke="#020202" stroke-width="0.56" stroke-miterlimit="10"/>
<path d="M57.4278 17.8462L72.141 26.7632L72.2263 26.8117L76.4892 29.408H76.5014" stroke="#020202" stroke-width="0.56" stroke-miterlimit="10"/>
<path d="M76.4892 29.4078H76.5014L95.1243 17.7368" fill="white"/>
<path d="M76.4892 29.4078H76.5014L95.1243 17.7368" stroke="#020202" stroke-width="0.56" stroke-miterlimit="10"/>
<path d="M57.0868 41.2002L57.0624 41.2245" stroke="#020202" stroke-width="0.56" stroke-miterlimit="10"/>
<path d="M57.5496 40.7635L61.5324 36.9419L65.9658 32.6836L72.141 26.7632" stroke="#020202" stroke-width="0.56" stroke-miterlimit="10"/>
<path d="M95.3192 40.5937L80.8983 26.7632" stroke="#020202" stroke-width="0.56" stroke-miterlimit="10"/>
</svg>
