<svg width="101" height="65" viewBox="0 0 101 65" fill="none" xmlns="http://www.w3.org/2000/svg">
<path d="M27.2934 23.2305L23.5507 26.957L27.2934 23.2305ZM32.7771 19.9816L20.2667 32.4376L32.7771 19.9816ZM36.1653 18.8709L19.1721 35.7489L36.1653 18.8709ZM38.8654 18.3519L18.6508 38.4685L38.8654 18.3519ZM41.2841 18.1754L18.4423 40.887L41.2841 18.1754ZM43.463 18.2169L18.5153 43.0564L43.463 18.2169ZM45.4646 18.4453L18.7447 45.0494L45.4646 18.4453ZM47.3307 18.8086L19.1095 46.9075L47.3307 18.8086ZM49.0613 19.2965L19.5995 48.6409L49.0613 19.2965ZM50.6981 19.8881L20.1938 50.2602L50.6981 19.8881ZM52.2306 20.5836L20.8818 51.7965L52.2306 20.5836ZM53.6797 21.3621L21.6742 53.2289L53.6797 21.3621ZM55.035 22.2236L22.5395 54.5887L55.035 22.2236ZM56.3277 23.1579L23.4777 55.8655L56.3277 23.1579ZM57.5371 24.1751L24.4994 57.0695L57.5371 24.1751ZM58.663 25.2754L25.5941 58.1906L58.663 25.2754ZM59.7264 26.438L26.7825 59.2286L59.7264 26.438ZM60.7064 27.6732L28.0127 60.2666L60.7064 27.6732ZM61.6134 28.9915L29.295 61.1697L61.6134 28.9915ZM62.437 30.3928L30.7441 61.9482L62.437 30.3928ZM63.1772 31.846L32.235 62.6955L63.1772 31.846ZM63.8235 33.4549L33.8092 63.3806L63.8235 33.4549ZM64.3656 35.1261L35.4981 63.8685L64.3656 35.1261ZM64.8035 36.8803L37.2912 64.3045L64.8035 36.8803ZM65.0954 38.8421L39.2199 64.5951L65.0954 38.8421ZM65.2309 40.9182L41.3154 64.7923L65.2309 40.9182ZM65.1788 43.2018L43.5985 64.6885L65.1788 43.2018ZM64.8452 45.7345L46.1631 64.346L64.8452 45.7345ZM64.0737 48.7759L49.1656 63.5779L64.0737 48.7759ZM62.364 52.658L53.1063 61.8755L62.364 52.658ZM41.8471 18.165C37.2201 18.165 32.697 19.5311 28.8499 22.0906C25.0027 24.6501 22.0042 28.2879 20.2335 32.5441C18.4629 36.8003 17.9996 41.4838 18.9023 46.0021C19.8049 50.5205 22.033 54.6709 25.3048 57.9285C28.5765 61.186 32.745 63.4045 37.2831 64.3032C41.8211 65.202 46.5249 64.7407 50.7997 62.9777C55.0744 61.2148 58.7281 58.2292 61.2987 54.3987C63.8693 50.5683 65.2414 46.0648 65.2414 41.4579C65.2414 35.2803 62.7766 29.3556 58.3893 24.9874C54.002 20.6191 48.0516 18.165 41.8471 18.165Z" stroke="#27AE60" stroke-width="0.5" stroke-miterlimit="10"/>
<path d="M90.1682 11.9992V44.5614C90.1696 44.7581 90.1317 44.9531 90.0567 45.1351C89.9818 45.3171 89.8712 45.4824 89.7315 45.6215C89.5919 45.7605 89.4258 45.8706 89.2431 45.9452C89.0603 46.0198 88.8645 46.0576 88.6669 46.0562H35.2374C34.9776 46.0562 34.7223 45.9882 34.4972 45.859C34.2686 45.7275 34.0788 45.5383 33.947 45.3105C33.8152 45.0827 33.7461 44.8243 33.7466 44.5614V11.9992C33.7452 11.8034 33.7828 11.6092 33.8571 11.4279C33.9314 11.2466 34.041 11.0818 34.1796 10.9429C34.3181 10.8039 34.4829 10.6936 34.6645 10.6184C34.8461 10.5432 35.0408 10.5044 35.2374 10.5044H88.6669C88.8645 10.5031 89.0603 10.5408 89.2431 10.6154C89.4258 10.69 89.5919 10.8001 89.7315 10.9391C89.8712 11.0782 89.9818 11.2435 90.0567 11.4255C90.1317 11.6075 90.1696 11.8025 90.1682 11.9992Z" fill="white" stroke="#020202" stroke-width="0.63" stroke-miterlimit="10"/>
<path d="M46.0797 23.293H40.6273C40.3567 23.293 40.1373 23.5114 40.1373 23.7808V27.9329C40.1373 28.2023 40.3567 28.4207 40.6273 28.4207H46.0797C46.3503 28.4207 46.5697 28.2023 46.5697 27.9329V23.7808C46.5697 23.5114 46.3503 23.293 46.0797 23.293Z" fill="white" stroke="#020202" stroke-width="0.63" stroke-miterlimit="10"/>
<path d="M80.285 38.2197L79.7012 41.6451H80.6395L81.2337 38.2197H80.285ZM78.9193 38.2197L77.9914 40.5448L77.8663 40.2126C77.5683 39.6306 77.1181 39.1393 76.5632 38.7906L77.4076 41.6451H78.4502L79.9514 38.2197H78.9193ZM77.5432 38.4688C77.5191 38.382 77.4652 38.3065 77.3909 38.2552C77.3166 38.204 77.2266 38.1804 77.1366 38.1885H75.677V38.2612C76.1558 38.3479 76.6058 38.5504 76.9875 38.8509C77.3692 39.1513 77.671 39.5405 77.8663 39.9843L77.5432 38.4688ZM83.1311 38.8736C83.3742 38.87 83.6154 38.9159 83.84 39.0085H83.9234L84.0485 38.2612C83.7783 38.162 83.4921 38.1127 83.2041 38.1159C82.2762 38.1159 81.6194 38.583 81.6194 39.2473C81.6194 39.7455 82.0886 40.0154 82.443 40.1815C82.7975 40.3476 82.933 40.4618 82.933 40.6071C82.933 40.7524 82.6411 40.9392 82.3701 40.9392C82.0651 40.9481 81.762 40.8877 81.4839 40.7628H81.3588L81.2337 41.5309C81.5676 41.652 81.9209 41.7118 82.2762 41.7074C83.3188 41.7074 83.9026 41.2506 83.913 40.5344C83.913 40.1504 83.6628 39.8493 83.1207 39.6106C82.7975 39.4445 82.589 39.3407 82.589 39.185C82.589 39.0293 82.7662 38.8736 83.1311 38.8736ZM86.4568 38.2197H85.727C85.6246 38.2078 85.5211 38.2298 85.4325 38.2823C85.344 38.3349 85.2753 38.415 85.237 38.5103L83.84 41.6243H84.8826C84.8826 41.6243 85.0389 41.2091 85.0806 41.1157H86.2066C86.2066 41.2403 86.3212 41.6243 86.3212 41.6243H87.2491L86.4568 38.2197ZM85.2996 40.4306C85.3725 40.2334 85.6749 39.4757 85.6749 39.4757C85.6749 39.4757 85.7478 39.2784 85.8 39.1435L85.8625 39.4445L86.0815 40.4825L85.2996 40.4306Z" fill="black"/>
<path d="M73.5127 13.5365H73.1479L73.0374 14.103H72.8398L72.9503 13.5365H72.6201V13.3472H72.9863L73.0816 12.858H72.7251V12.6659H73.1189L73.2322 12.0911H73.4298L73.3165 12.6659H73.6813L73.7946 12.0911H73.9936L73.8803 12.6659H74.1622V12.858H73.843L73.7476 13.3472H74.0586V13.5365H73.7117L73.6012 14.103H73.4022L73.5127 13.5365ZM73.1839 13.3472H73.5487L73.644 12.858H73.2792L73.1839 13.3472ZM75.6587 13.372C75.6587 13.6005 75.6062 13.7843 75.5012 13.9234C75.3962 14.0616 75.2552 14.1307 75.0784 14.1307C74.8895 14.1307 74.7435 14.0639 74.6403 13.9303L74.6279 14.103H74.393V11.9805H74.6486V12.7723C74.7518 12.6443 74.8941 12.5802 75.0756 12.5802C75.2571 12.5802 75.3994 12.6489 75.5026 12.7861C75.6067 12.9234 75.6587 13.1113 75.6587 13.3499V13.372ZM75.4031 13.343C75.4031 13.1689 75.3695 13.0344 75.3022 12.9395C75.235 12.8446 75.1382 12.7972 75.012 12.7972C74.8434 12.7972 74.7223 12.8755 74.6486 13.0321V13.6788C74.7269 13.8354 74.849 13.9137 75.0148 13.9137C75.1373 13.9137 75.2327 13.8663 75.3008 13.7714C75.369 13.6765 75.4031 13.5337 75.4031 13.343ZM76.9051 13.9552C76.8056 14.0722 76.6596 14.1307 76.4671 14.1307C76.3077 14.1307 76.1861 14.0846 76.1023 13.9925C76.0194 13.8994 75.9775 13.7622 75.9765 13.5807V12.6079H76.2322V13.5738C76.2322 13.8004 76.3243 13.9137 76.5086 13.9137C76.7039 13.9137 76.8337 13.8409 76.8982 13.6954V12.6079H77.1539V14.103H76.9107L76.9051 13.9552ZM78.4141 13.7064C78.4141 13.6373 78.3878 13.5839 78.3353 13.5461C78.2838 13.5075 78.193 13.4743 78.0631 13.4467C77.9341 13.419 77.8314 13.3859 77.755 13.3472C77.6794 13.3085 77.6232 13.2624 77.5864 13.209C77.5505 13.1555 77.5325 13.092 77.5325 13.0183C77.5325 12.8958 77.5841 12.7921 77.6873 12.7074C77.7914 12.6226 77.924 12.5802 78.0852 12.5802C78.2547 12.5802 78.392 12.624 78.497 12.7115C78.603 12.799 78.6559 12.911 78.6559 13.0473H78.3989C78.3989 12.9773 78.369 12.917 78.3091 12.8663C78.2501 12.8156 78.1755 12.7903 78.0852 12.7903C77.9922 12.7903 77.9194 12.8106 77.8669 12.8511C77.8144 12.8916 77.7881 12.9446 77.7881 13.01C77.7881 13.0717 77.8125 13.1182 77.8614 13.1496C77.9102 13.1809 77.9982 13.2108 78.1253 13.2394C78.2534 13.2679 78.357 13.302 78.4362 13.3416C78.5154 13.3812 78.5739 13.4292 78.6117 13.4853C78.6504 13.5406 78.6697 13.6083 78.6697 13.6885C78.6697 13.8221 78.6163 13.9294 78.5095 14.0104C78.4026 14.0906 78.2639 14.1307 78.0935 14.1307C77.9738 14.1307 77.8678 14.1095 77.7757 14.0671C77.6836 14.0247 77.6113 13.9658 77.5587 13.8902C77.5072 13.8138 77.4814 13.7313 77.4814 13.6429H77.737C77.7416 13.7285 77.7757 13.7967 77.8393 13.8474C77.9037 13.8971 77.9885 13.922 78.0935 13.922C78.1902 13.922 78.2676 13.9027 78.3257 13.864C78.3846 13.8244 78.4141 13.7718 78.4141 13.7064ZM79.2805 14.103H79.0249V12.6079H79.2805V14.103ZM79.0041 12.2113C79.0041 12.1698 79.0166 12.1348 79.0415 12.1063C79.0673 12.0777 79.105 12.0634 79.1548 12.0634C79.2045 12.0634 79.2423 12.0777 79.2681 12.1063C79.2939 12.1348 79.3068 12.1698 79.3068 12.2113C79.3068 12.2527 79.2939 12.2873 79.2681 12.3149C79.2423 12.3426 79.2045 12.3564 79.1548 12.3564C79.105 12.3564 79.0673 12.3426 79.0415 12.3149C79.0166 12.2873 79.0041 12.2527 79.0041 12.2113ZM79.9327 12.6079L79.941 12.7958C80.0553 12.6521 80.2045 12.5802 80.3887 12.5802C80.7047 12.5802 80.8641 12.7585 80.8669 13.115V14.103H80.6112V13.1136C80.6103 13.0058 80.5854 12.9262 80.5366 12.8746C80.4887 12.823 80.4136 12.7972 80.3114 12.7972C80.2285 12.7972 80.1557 12.8193 80.093 12.8635C80.0304 12.9077 79.9816 12.9658 79.9466 13.0376V14.103H79.6909V12.6079H79.9327ZM81.8728 14.1307C81.6702 14.1307 81.5053 14.0643 81.3781 13.9317C81.251 13.7981 81.1874 13.6198 81.1874 13.3969V13.3499C81.1874 13.2016 81.2155 13.0694 81.2717 12.9533C81.3289 12.8363 81.4081 12.7451 81.5094 12.6797C81.6117 12.6134 81.7222 12.5802 81.8411 12.5802C82.0354 12.5802 82.1865 12.6443 82.2943 12.7723C82.4021 12.9004 82.456 13.0837 82.456 13.3223V13.4287H81.4431C81.4468 13.5761 81.4896 13.6954 81.5716 13.7866C81.6545 13.8769 81.7595 13.922 81.8867 13.922C81.9769 13.922 82.0534 13.9036 82.116 13.8667C82.1787 13.8299 82.2335 13.7811 82.2805 13.7203L82.4366 13.8419C82.3113 14.0344 82.1234 14.1307 81.8728 14.1307ZM81.8411 12.7903C81.7379 12.7903 81.6513 12.8281 81.5813 12.9036C81.5113 12.9782 81.468 13.0832 81.4514 13.2187H82.2003V13.1993C82.193 13.0694 82.158 12.969 82.0953 12.8981C82.0327 12.8262 81.9479 12.7903 81.8411 12.7903ZM83.6236 13.7064C83.6236 13.6373 83.5974 13.5839 83.5449 13.5461C83.4933 13.5075 83.4025 13.4743 83.2726 13.4467C83.1437 13.419 83.041 13.3859 82.9645 13.3472C82.8889 13.3085 82.8328 13.2624 82.7959 13.209C82.76 13.1555 82.742 13.092 82.742 13.0183C82.742 12.8958 82.7936 12.7921 82.8968 12.7074C83.0009 12.6226 83.1335 12.5802 83.2947 12.5802C83.4643 12.5802 83.6015 12.624 83.7065 12.7115C83.8125 12.799 83.8654 12.911 83.8654 13.0473H83.6084C83.6084 12.9773 83.5785 12.917 83.5186 12.8663C83.4596 12.8156 83.385 12.7903 83.2947 12.7903C83.2017 12.7903 83.1289 12.8106 83.0764 12.8511C83.0239 12.8916 82.9977 12.9446 82.9977 13.01C82.9977 13.0717 83.0221 13.1182 83.0709 13.1496C83.1197 13.1809 83.2077 13.2108 83.3348 13.2394C83.4629 13.2679 83.5665 13.302 83.6457 13.3416C83.725 13.3812 83.7835 13.4292 83.8212 13.4853C83.8599 13.5406 83.8793 13.6083 83.8793 13.6885C83.8793 13.8221 83.8258 13.9294 83.719 14.0104C83.6121 14.0906 83.4735 14.1307 83.303 14.1307C83.1833 14.1307 83.0773 14.1095 82.9852 14.0671C82.8931 14.0247 82.8208 13.9658 82.7683 13.8902C82.7167 13.8138 82.6909 13.7313 82.6909 13.6429H82.9465C82.9511 13.7285 82.9852 13.7967 83.0488 13.8474C83.1133 13.8971 83.198 13.922 83.303 13.922C83.3998 13.922 83.4772 13.9027 83.5352 13.864C83.5941 13.8244 83.6236 13.7718 83.6236 13.7064ZM85.0828 13.7064C85.0828 13.6373 85.0566 13.5839 85.0041 13.5461C84.9525 13.5075 84.8618 13.4743 84.7319 13.4467C84.6029 13.419 84.5002 13.3859 84.4237 13.3472C84.3482 13.3085 84.292 13.2624 84.2551 13.209C84.2192 13.1555 84.2012 13.092 84.2012 13.0183C84.2012 12.8958 84.2528 12.7921 84.356 12.7074C84.4601 12.6226 84.5928 12.5802 84.754 12.5802C84.9235 12.5802 85.0607 12.624 85.1658 12.7115C85.2717 12.799 85.3247 12.911 85.3247 13.0473H85.0676C85.0676 12.9773 85.0377 12.917 84.9778 12.8663C84.9189 12.8156 84.8442 12.7903 84.754 12.7903C84.6609 12.7903 84.5881 12.8106 84.5356 12.8511C84.4831 12.8916 84.4569 12.9446 84.4569 13.01C84.4569 13.0717 84.4813 13.1182 84.5301 13.1496C84.5789 13.1809 84.6669 13.2108 84.794 13.2394C84.9221 13.2679 85.0257 13.302 85.105 13.3416C85.1842 13.3812 85.2427 13.4292 85.2804 13.4853C85.3191 13.5406 85.3385 13.6083 85.3385 13.6885C85.3385 13.8221 85.2851 13.9294 85.1782 14.0104C85.0713 14.0906 84.9327 14.1307 84.7623 14.1307C84.6425 14.1307 84.5366 14.1095 84.4444 14.0671C84.3523 14.0247 84.28 13.9658 84.2275 13.8902C84.1759 13.8138 84.1501 13.7313 84.1501 13.6429H84.4057C84.4104 13.7285 84.4444 13.7967 84.508 13.8474C84.5725 13.8971 84.6572 13.922 84.7623 13.922C84.859 13.922 84.9364 13.9027 84.9944 13.864C85.0534 13.8244 85.0828 13.7718 85.0828 13.7064Z" fill="black"/>
<path d="M100.666 1.81651V34.3892C100.666 34.7838 100.51 35.1624 100.23 35.4425C99.9511 35.7225 99.5719 35.8812 99.1756 35.8839H45.7461C45.4828 35.8853 45.2238 35.8173 44.9955 35.6867C44.7675 35.5544 44.5783 35.3651 44.4466 35.1375C44.3149 34.9098 44.2454 34.6519 44.2448 34.3892V1.81651C44.2448 1.42008 44.403 1.03989 44.6845 0.759574C44.9661 0.479257 45.3479 0.321777 45.7461 0.321777H99.1756C99.5719 0.324518 99.9511 0.483207 100.23 0.763227C100.51 1.04325 100.666 1.42187 100.666 1.81651Z" fill="white" stroke="#020202" stroke-width="0.63" stroke-miterlimit="10"/>
<path d="M56.5779 13.1206H51.1255C50.8549 13.1206 50.6355 13.339 50.6355 13.6085V17.7605C50.6355 18.0299 50.8549 18.2484 51.1255 18.2484H56.5779C56.8485 18.2484 57.0679 18.0299 57.0679 17.7605V13.6085C57.0679 13.339 56.8485 13.1206 56.5779 13.1206Z" fill="white" stroke="#020202" stroke-width="0.63" stroke-miterlimit="10"/>
<path d="M90.7937 28.0883L90.1994 31.5241H91.1377L91.7319 28.0883H90.7937ZM89.4175 28.0883L88.5001 30.4238L88.3958 30.0709C88.0978 29.4889 87.6476 28.9976 87.0927 28.6489L87.9371 31.5138H88.9797L90.3766 28.0883H89.4175ZM88.0414 28.3271C88.0191 28.24 87.9653 28.1642 87.8902 28.1144C87.8151 28.0645 87.7241 28.0441 87.6348 28.0572H86.2065V28.0883C86.6849 28.1759 87.1346 28.3788 87.5162 28.6791C87.8978 28.9794 88.1998 29.3682 88.3958 29.8114L88.0414 28.3271ZM93.6293 28.7423C93.8716 28.7359 94.1128 28.7783 94.3383 28.8668H94.4216L94.5468 28.0883C94.2765 27.9891 93.9903 27.9399 93.7023 27.943C92.7745 27.943 92.1281 28.4101 92.1177 29.0744C92.1177 29.5623 92.5868 29.8426 92.9413 30.0086C93.2957 30.1747 93.4313 30.2785 93.4313 30.4342C93.4313 30.5899 93.1393 30.7664 92.8683 30.7664C92.5635 30.7728 92.261 30.7125 91.9821 30.5899L91.857 30.5276L91.7319 31.2958C92.0662 31.4166 92.4188 31.4798 92.7745 31.4826C93.817 31.4826 94.4008 31.0259 94.4112 30.3097C94.4112 29.9152 94.161 29.6246 93.6189 29.3755C93.2957 29.2198 93.0872 29.116 93.0976 28.9499C93.1081 28.7838 93.2644 28.7008 93.6293 28.7008V28.7423ZM96.955 28.0883H96.2356C96.133 28.075 96.0288 28.0951 95.9387 28.1457C95.8485 28.1962 95.7771 28.2744 95.7352 28.3686L94.3487 31.4826H95.3286C95.3286 31.4826 95.4955 31.057 95.5267 30.9636H96.7256C96.7256 31.0778 96.8403 31.4722 96.8403 31.4722H97.6743L96.955 28.0883ZM95.7978 30.2993L96.1731 29.3339C96.1731 29.3339 96.2461 29.1367 96.2982 29.0122L96.3607 29.3028L96.5797 30.3408L95.7978 30.2993Z" fill="black"/>
<path d="M84.0214 3.36411H83.6566L83.546 3.93066H83.3484L83.459 3.36411H83.1287V3.1748H83.4949L83.5903 2.68563H83.2338V2.49355H83.6276L83.7409 1.91871H83.9385L83.8252 2.49355H84.19L84.3033 1.91871H84.5023L84.389 2.49355H84.6709V2.68563H84.3517L84.2563 3.1748H84.5672V3.36411H84.2204L84.1098 3.93066H83.9109L84.0214 3.36411ZM83.6925 3.1748H84.0573L84.1527 2.68563H83.7879L83.6925 3.1748ZM86.1674 3.19967C86.1674 3.42814 86.1149 3.61192 86.0099 3.75103C85.9048 3.88921 85.7639 3.9583 85.587 3.9583C85.3982 3.9583 85.2522 3.89151 85.149 3.75793L85.1365 3.93066H84.9016V1.80816H85.1573V2.59996C85.2604 2.47191 85.4028 2.40788 85.5843 2.40788C85.7657 2.40788 85.9081 2.47651 86.0112 2.61377C86.1153 2.75104 86.1674 2.93897 86.1674 3.17756V3.19967ZM85.9118 3.17065C85.9118 2.99654 85.8781 2.86204 85.8109 2.76716C85.7436 2.67227 85.6469 2.62483 85.5207 2.62483C85.3521 2.62483 85.231 2.70313 85.1573 2.85974V3.50644C85.2356 3.66305 85.3576 3.74135 85.5235 3.74135C85.646 3.74135 85.7413 3.69391 85.8095 3.59902C85.8777 3.50414 85.9118 3.36135 85.9118 3.17065ZM87.4138 3.78281C87.3143 3.8998 87.1683 3.9583 86.9758 3.9583C86.8164 3.9583 86.6948 3.91224 86.611 3.82012C86.528 3.72707 86.4861 3.58981 86.4852 3.40833V2.43552H86.7409V3.40142C86.7409 3.62804 86.833 3.74135 87.0172 3.74135C87.2125 3.74135 87.3424 3.66858 87.4069 3.52302V2.43552H87.6625V3.93066H87.4193L87.4138 3.78281ZM88.9228 3.53408C88.9228 3.46499 88.8965 3.41155 88.844 3.37378C88.7924 3.33509 88.7017 3.30193 88.5718 3.27429C88.4428 3.24666 88.3401 3.21349 88.2636 3.1748C88.1881 3.13611 88.1319 3.09005 88.0951 3.03662C88.0591 2.98319 88.0412 2.91962 88.0412 2.84592C88.0412 2.7234 88.0927 2.61976 88.1959 2.53501C88.3 2.45026 88.4327 2.40788 88.5939 2.40788C88.7634 2.40788 88.9007 2.45164 89.0057 2.53916C89.1116 2.62667 89.1646 2.7386 89.1646 2.87494H88.9076C88.9076 2.80493 88.8776 2.74459 88.8178 2.69392C88.7588 2.64325 88.6842 2.61792 88.5939 2.61792C88.5009 2.61792 88.4281 2.63819 88.3756 2.67872C88.3231 2.71925 88.2968 2.77222 88.2968 2.83763C88.2968 2.89935 88.3212 2.94588 88.37 2.9772C88.4189 3.00852 88.5068 3.03846 88.634 3.06702C88.762 3.09557 88.8657 3.12966 88.9449 3.16927C89.0241 3.20889 89.0826 3.25679 89.1204 3.31298C89.1591 3.36826 89.1784 3.43597 89.1784 3.51611C89.1784 3.64969 89.125 3.75701 89.0181 3.83808C88.9113 3.91823 88.7726 3.9583 88.6022 3.9583C88.4824 3.9583 88.3765 3.93711 88.2844 3.89474C88.1922 3.85236 88.1199 3.7934 88.0674 3.71786C88.0158 3.6414 87.99 3.55895 87.99 3.47051H88.2457C88.2503 3.55619 88.2844 3.62436 88.3479 3.67502C88.4124 3.72477 88.4972 3.74964 88.6022 3.74964C88.6989 3.74964 88.7763 3.7303 88.8343 3.69161C88.8933 3.65199 88.9228 3.59948 88.9228 3.53408ZM89.7892 3.93066H89.5335V2.43552H89.7892V3.93066ZM89.5128 2.03893C89.5128 1.99748 89.5253 1.96247 89.5501 1.93391C89.5759 1.90535 89.6137 1.89107 89.6634 1.89107C89.7132 1.89107 89.751 1.90535 89.7767 1.93391C89.8025 1.96247 89.8154 1.99748 89.8154 2.03893C89.8154 2.08039 89.8025 2.11493 89.7767 2.14257C89.751 2.17021 89.7132 2.18402 89.6634 2.18402C89.6137 2.18402 89.5759 2.17021 89.5501 2.14257C89.5253 2.11493 89.5128 2.08039 89.5128 2.03893ZM90.4414 2.43552L90.4497 2.62345C90.5639 2.47974 90.7132 2.40788 90.8974 2.40788C91.2134 2.40788 91.3728 2.58614 91.3755 2.94265V3.93066H91.1199V2.94127C91.119 2.83349 91.0941 2.7538 91.0453 2.70221C90.9974 2.65062 90.9223 2.62483 90.82 2.62483C90.7371 2.62483 90.6643 2.64694 90.6017 2.69116C90.5391 2.73538 90.4902 2.79341 90.4552 2.86527V3.93066H90.1996V2.43552H90.4414ZM92.3815 3.9583C92.1788 3.9583 92.0139 3.89197 91.8868 3.75932C91.7597 3.62574 91.6961 3.44748 91.6961 3.22455V3.17756C91.6961 3.02925 91.7242 2.89705 91.7804 2.78098C91.8375 2.66398 91.9167 2.57278 92.0181 2.50737C92.1203 2.44104 92.2309 2.40788 92.3497 2.40788C92.5441 2.40788 92.6952 2.47191 92.803 2.59996C92.9107 2.72801 92.9646 2.91133 92.9646 3.14993V3.25633H91.9518C91.9554 3.40372 91.9983 3.52302 92.0803 3.61422C92.1632 3.7045 92.2682 3.74964 92.3953 3.74964C92.4856 3.74964 92.5621 3.73122 92.6247 3.69437C92.6874 3.65752 92.7422 3.6087 92.7891 3.5479L92.9453 3.6695C92.82 3.86203 92.6321 3.9583 92.3815 3.9583ZM92.3497 2.61792C92.2465 2.61792 92.16 2.65569 92.0899 2.73123C92.0199 2.80585 91.9766 2.91087 91.96 3.04629H92.709V3.02694C92.7016 2.89705 92.6666 2.79664 92.604 2.7257C92.5413 2.65385 92.4566 2.61792 92.3497 2.61792ZM94.1323 3.53408C94.1323 3.46499 94.106 3.41155 94.0535 3.37378C94.0019 3.33509 93.9112 3.30193 93.7813 3.27429C93.6523 3.24666 93.5496 3.21349 93.4732 3.1748C93.3976 3.13611 93.3414 3.09005 93.3046 3.03662C93.2686 2.98319 93.2507 2.91962 93.2507 2.84592C93.2507 2.7234 93.3023 2.61976 93.4054 2.53501C93.5095 2.45026 93.6422 2.40788 93.8034 2.40788C93.9729 2.40788 94.1102 2.45164 94.2152 2.53916C94.3211 2.62667 94.3741 2.7386 94.3741 2.87494H94.1171C94.1171 2.80493 94.0872 2.74459 94.0273 2.69392C93.9683 2.64325 93.8937 2.61792 93.8034 2.61792C93.7104 2.61792 93.6376 2.63819 93.5851 2.67872C93.5326 2.71925 93.5063 2.77222 93.5063 2.83763C93.5063 2.89935 93.5307 2.94588 93.5796 2.9772C93.6284 3.00852 93.7164 3.03846 93.8435 3.06702C93.9715 3.09557 94.0752 3.12966 94.1544 3.16927C94.2336 3.20889 94.2921 3.25679 94.3299 3.31298C94.3686 3.36826 94.3879 3.43597 94.3879 3.51611C94.3879 3.64969 94.3345 3.75701 94.2276 3.83808C94.1208 3.91823 93.9821 3.9583 93.8117 3.9583C93.6919 3.9583 93.586 3.93711 93.4939 3.89474C93.4018 3.85236 93.3294 3.7934 93.2769 3.71786C93.2253 3.6414 93.1996 3.55895 93.1996 3.47051H93.4552C93.4598 3.55619 93.4939 3.62436 93.5574 3.67502C93.6219 3.72477 93.7067 3.74964 93.8117 3.74964C93.9084 3.74964 93.9858 3.7303 94.0439 3.69161C94.1028 3.65199 94.1323 3.59948 94.1323 3.53408ZM95.5915 3.53408C95.5915 3.46499 95.5653 3.41155 95.5127 3.37378C95.4612 3.33509 95.3704 3.30193 95.2405 3.27429C95.1116 3.24666 95.0088 3.21349 94.9324 3.1748C94.8568 3.13611 94.8006 3.09005 94.7638 3.03662C94.7279 2.98319 94.7099 2.91962 94.7099 2.84592C94.7099 2.7234 94.7615 2.61976 94.8647 2.53501C94.9688 2.45026 95.1014 2.40788 95.2626 2.40788C95.4321 2.40788 95.5694 2.45164 95.6744 2.53916C95.7804 2.62667 95.8333 2.7386 95.8333 2.87494H95.5763C95.5763 2.80493 95.5464 2.74459 95.4865 2.69392C95.4275 2.64325 95.3529 2.61792 95.2626 2.61792C95.1696 2.61792 95.0968 2.63819 95.0443 2.67872C94.9918 2.71925 94.9655 2.77222 94.9655 2.83763C94.9655 2.89935 94.99 2.94588 95.0388 2.9772C95.0876 3.00852 95.1756 3.03846 95.3027 3.06702C95.4308 3.09557 95.5344 3.12966 95.6136 3.16927C95.6928 3.20889 95.7513 3.25679 95.7891 3.31298C95.8278 3.36826 95.8472 3.43597 95.8472 3.51611C95.8472 3.64969 95.7937 3.75701 95.6869 3.83808C95.58 3.91823 95.4414 3.9583 95.2709 3.9583C95.1512 3.9583 95.0452 3.93711 94.9531 3.89474C94.861 3.85236 94.7887 3.7934 94.7362 3.71786C94.6846 3.6414 94.6588 3.55895 94.6588 3.47051H94.9144C94.919 3.55619 94.9531 3.62436 95.0167 3.67502C95.0812 3.72477 95.1659 3.74964 95.2709 3.74964C95.3677 3.74964 95.445 3.7303 95.5031 3.69161C95.562 3.65199 95.5915 3.59948 95.5915 3.53408Z" fill="black"/>
<path d="M4.118 58.8137C5.81652 58.8137 7.19345 57.4427 7.19345 55.7516C7.19345 54.0604 5.81652 52.6895 4.118 52.6895C2.41947 52.6895 1.04254 54.0604 1.04254 55.7516C1.04254 57.4427 2.41947 58.8137 4.118 58.8137Z" stroke="#27AE60" stroke-width="2" stroke-miterlimit="10"/>
</svg>
