<svg width="100" height="81" viewBox="0 0 100 81" fill="none" xmlns="http://www.w3.org/2000/svg">
<path d="M10.6635 20.5656L6.22038 24.9725L10.6635 20.5656ZM17.0468 16.8197L2.44372 31.2892L17.0468 16.8197ZM21.0308 15.4241L1.12559 35.1967L21.0308 15.4241ZM24.2595 14.8512L0.562796 38.355L24.2595 14.8512ZM27.0735 14.6456L0.311019 41.1902L27.0735 14.6456ZM29.6357 14.7484L0.370262 43.7315L29.6357 14.7484ZM31.9757 14.9687L0.636847 46.0525L31.9757 14.9687ZM34.1677 15.4241L1.05154 48.2266L34.1677 15.4241ZM36.2115 15.9089L1.62915 50.2538L36.2115 15.9089ZM38.122 16.6581L2.34005 52.1488L38.122 16.6581ZM39.9141 17.4513L3.13981 53.941L39.9141 17.4513ZM41.6173 18.3621L4.05806 55.6156L41.6173 18.3621ZM43.2168 19.3757L5.07998 57.2021L43.2168 19.3757ZM44.7275 20.4774L6.22038 58.6711L44.7275 20.4774ZM46.2085 21.6379L7.3904 60.1107L46.2085 21.6379ZM47.4674 22.9453L8.6641 61.4181L47.4674 22.9453ZM48.7115 24.238L10.0415 62.6521L48.7115 24.238ZM49.8667 25.707L11.5077 63.7538L49.8667 25.707ZM50.9182 27.2935L13.0628 64.8409L50.9182 27.2935ZM51.8957 28.9241L14.7068 65.8104L51.8957 28.9241ZM52.7696 30.6575L16.4544 66.6771L52.7696 30.6575ZM53.4805 32.4938L18.3353 67.4263L53.4805 32.4938ZM54.1617 34.521L20.2903 68.058L54.1617 34.521ZM54.6653 36.5482L22.3934 68.5574L54.6653 36.5482ZM54.9763 38.7957L24.6594 68.8953L54.9763 38.7957ZM55.1688 41.2342L27.029 69.0716L55.1688 41.2342ZM55.0207 43.8931L29.7838 68.9981L55.0207 43.8931ZM54.7097 46.8751L32.8051 68.6162L54.7097 46.8751ZM53.8803 50.3713L36.3152 67.7054L53.8803 50.3713ZM51.8069 54.9399L40.9508 65.7223L51.8069 54.9399ZM27.7399 14.6309C22.3127 14.6309 17.0073 16.2269 12.4946 19.2173C7.98178 22.2077 4.46424 26.458 2.38666 31.431C0.309071 36.4041 -0.23527 41.8764 0.822452 47.1562C1.88017 52.4361 4.49246 57.2863 8.32906 61.0937C12.1656 64.9011 17.0543 67.4948 22.3769 68.5467C27.6994 69.5987 33.217 69.0617 38.2319 67.0037C43.2469 64.9458 47.534 61.4591 50.5514 56.9847C53.5687 52.5103 55.1807 47.2489 55.1836 41.8659C55.1856 38.29 54.4772 34.7488 53.0989 31.4446C51.7206 28.1404 49.6994 25.1379 47.1508 22.6087C44.6022 20.0795 41.5762 18.0732 38.2456 16.7043C34.915 15.3354 31.3451 14.6309 27.7399 14.6309Z" stroke="#27AE60" stroke-width="0.41" stroke-miterlimit="10"/>
<path d="M94.1499 66.9859C96.5629 66.9859 98.519 65.0457 98.519 62.6524C98.519 60.259 96.5629 58.3188 94.1499 58.3188C91.7369 58.3188 89.7808 60.259 89.7808 62.6524C89.7808 65.0457 91.7369 66.9859 94.1499 66.9859Z" stroke="#27AE60" stroke-width="2" stroke-miterlimit="10"/>
<path d="M75.9627 6.18457H39.9585C37.9218 6.18457 36.2707 7.82221 36.2707 9.84235V76.5932C36.2707 78.6133 37.9218 80.2509 39.9585 80.2509H75.9627C77.9994 80.2509 79.6505 78.6133 79.6505 76.5932V9.84235C79.6505 7.82221 77.9994 6.18457 75.9627 6.18457Z" fill="white" stroke="#020202" stroke-width="0.56" stroke-miterlimit="10"/>
<path d="M76.0367 8.54932H39.8845C39.3201 8.54932 38.8626 9.00312 38.8626 9.56292V76.4313C38.8626 76.991 39.3201 77.4449 39.8845 77.4449H76.0367C76.6011 77.4449 77.0587 76.991 77.0587 76.4313V9.56292C77.0587 9.00312 76.6011 8.54932 76.0367 8.54932Z" fill="white" stroke="#020202" stroke-width="0.56" stroke-miterlimit="10"/>
<path d="M95.0829 0.411133H70.779C69.9935 0.411133 69.24 0.720667 68.6845 1.27164C68.129 1.82262 67.817 2.56991 67.817 3.34911V27.514C67.817 28.2932 68.129 29.0404 68.6845 29.5914C69.24 30.1424 69.9935 30.4519 70.779 30.4519H71.4011V35.5053L76.6588 30.4519H95.0829C95.8685 30.4519 96.622 30.1424 97.1775 29.5914C97.733 29.0404 98.045 28.2932 98.045 27.514V3.40787C98.0529 3.01713 97.9821 2.62876 97.8368 2.2655C97.6915 1.90224 97.4745 1.57139 97.1987 1.29232C96.9228 1.01325 96.5936 0.791564 96.2303 0.640256C95.867 0.488948 95.477 0.411055 95.0829 0.411133Z" fill="white" stroke="#020202" stroke-width="0.56" stroke-miterlimit="10"/>
<path d="M90.8027 13.162H90.2992C90.2055 13.1642 90.1135 13.137 90.0364 13.0842C89.9592 13.0315 89.9009 12.9559 89.8697 12.8682C89.8697 12.7213 89.7512 12.5744 89.6771 12.4275C89.6389 12.3417 89.6283 12.2462 89.6469 12.1542C89.6655 12.0621 89.7122 11.978 89.7808 11.9134L90.1363 11.5608C90.2657 11.4326 90.3684 11.2803 90.4384 11.1127C90.5084 10.9451 90.5445 10.7654 90.5445 10.5839C90.5445 10.4025 90.5084 10.2228 90.4384 10.0552C90.3684 9.88759 90.2657 9.73531 90.1363 9.60706L88.833 8.31435C88.7037 8.18599 88.5501 8.08416 88.3811 8.01468C88.2121 7.9452 88.031 7.90944 87.8481 7.90944C87.6651 7.90944 87.484 7.9452 87.315 8.01468C87.146 8.08416 86.9925 8.18599 86.8632 8.31435L86.4633 8.66691C86.3981 8.73494 86.3133 8.78134 86.2205 8.79975C86.1277 8.81815 86.0315 8.80767 85.9449 8.76974L85.5006 8.57877C85.4122 8.54782 85.336 8.48995 85.2828 8.41343C85.2296 8.33692 85.2022 8.24568 85.2044 8.15276V7.65331C85.2044 7.28708 85.0577 6.93586 84.7966 6.6769C84.5356 6.41794 84.1814 6.27246 83.8122 6.27246H82.0202C81.6509 6.27246 81.2968 6.41794 81.0357 6.6769C80.7747 6.93586 80.628 7.28708 80.628 7.65331V8.15276C80.6302 8.24568 80.6028 8.33692 80.5496 8.41343C80.4964 8.48995 80.4201 8.54782 80.3318 8.57877L79.8875 8.75505C79.8051 8.79583 79.7117 8.80927 79.621 8.7934C79.5303 8.77753 79.4472 8.73319 79.3839 8.66691L79.0581 8.31435C78.9288 8.18599 78.7752 8.08416 78.6063 8.01468C78.4373 7.9452 78.2561 7.90944 78.0732 7.90944C77.8902 7.90944 77.7091 7.9452 77.5401 8.01468C77.3711 8.08416 77.2176 8.18599 77.0883 8.31435L75.785 9.60706C75.5435 9.87608 75.41 10.2237 75.41 10.5839C75.41 10.9441 75.5435 11.2918 75.785 11.5608L76.1552 11.9134C76.2179 11.9818 76.2596 12.0665 76.2753 12.1576C76.2911 12.2487 76.2802 12.3423 76.2441 12.4275C76.2441 12.5744 76.1108 12.7213 76.0516 12.8682C76.0203 12.9559 75.962 13.0315 75.8849 13.0842C75.8077 13.137 75.7157 13.1642 75.6221 13.162H75.0593C74.69 13.162 74.3359 13.3075 74.0748 13.5665C73.8138 13.8254 73.6671 14.1766 73.6671 14.5429V16.3791C73.6671 16.7453 73.8138 17.0965 74.0748 17.3555C74.3359 17.6145 74.69 17.7599 75.0593 17.7599H75.5628C75.6565 17.7577 75.7485 17.785 75.8256 17.8377C75.9028 17.8905 75.9611 17.9661 75.9923 18.0537C76.0475 18.1996 76.1118 18.3419 76.1848 18.4798C76.221 18.566 76.2305 18.6609 76.212 18.7525C76.1935 18.8441 76.148 18.9281 76.0812 18.9939L75.7257 19.3611C75.5949 19.4871 75.491 19.6378 75.42 19.8044C75.349 19.9709 75.3124 20.1499 75.3124 20.3307C75.3124 20.5115 75.349 20.6905 75.42 20.857C75.491 21.0235 75.5949 21.1742 75.7257 21.3002L77.029 22.6076C77.3003 22.8471 77.6508 22.9795 78.0139 22.9795C78.3771 22.9795 78.7276 22.8471 78.9988 22.6076L79.3543 22.2404C79.4222 22.1765 79.5078 22.1341 79.6 22.1184C79.6923 22.1027 79.7871 22.1145 79.8726 22.1522L80.317 22.3432C80.4053 22.3741 80.4815 22.432 80.5347 22.5085C80.5879 22.585 80.6154 22.6763 80.6132 22.7692V23.2687C80.6132 23.6349 80.7598 23.9861 81.0209 24.2451C81.282 24.504 81.6361 24.6495 82.0053 24.6495H83.8566C84.2259 24.6495 84.58 24.504 84.8411 24.2451C85.1022 23.9861 85.2488 23.6349 85.2488 23.2687V22.7692C85.2466 22.6763 85.274 22.585 85.3272 22.5085C85.3804 22.432 85.4567 22.3741 85.545 22.3432L85.9745 22.1522C86.0611 22.1143 86.1574 22.1038 86.2501 22.1222C86.3429 22.1406 86.4277 22.187 86.4929 22.2551L86.8632 22.6076C87.1237 22.8624 87.4748 23.0052 87.8407 23.0052C88.2065 23.0052 88.5576 22.8624 88.8181 22.6076L90.1363 21.3149C90.3778 21.0459 90.5112 20.6982 90.5112 20.338C90.5112 19.9778 90.3778 19.6302 90.1363 19.3611L89.766 18.9939C89.7029 18.9288 89.6608 18.8465 89.645 18.7576C89.6292 18.6686 89.6404 18.5771 89.6771 18.4944C89.6771 18.3475 89.8104 18.2006 89.8697 18.0537C89.9009 17.9661 89.9592 17.8905 90.0364 17.8377C90.1135 17.785 90.2055 17.7577 90.2992 17.7599H90.8027C91.172 17.7599 91.5261 17.6145 91.7872 17.3555C92.0482 17.0965 92.1949 16.7453 92.1949 16.3791V14.5429C92.1949 14.1766 92.0482 13.8254 91.7872 13.5665C91.5261 13.3075 91.172 13.162 90.8027 13.162ZM91.2619 16.3791C91.2619 16.4999 91.2135 16.6157 91.1274 16.7011C91.0413 16.7865 90.9245 16.8345 90.8027 16.8345H90.2992C90.0158 16.8345 89.7392 16.9204 89.5063 17.0805C89.2734 17.2406 89.0953 17.4674 88.9959 17.7306L88.833 18.1125C88.7308 18.358 88.7031 18.6277 88.753 18.8886C88.803 19.1495 88.9286 19.3903 89.1144 19.5815L89.4846 19.9487C89.5276 19.9911 89.5617 20.0414 89.585 20.0969C89.6083 20.1524 89.6203 20.2118 89.6203 20.2719C89.6203 20.332 89.6083 20.3915 89.585 20.447C89.5617 20.5024 89.5276 20.5528 89.4846 20.5951L88.1665 21.9025C88.1238 21.9451 88.0731 21.979 88.0171 22.0021C87.9612 22.0252 87.9012 22.0371 87.8407 22.0371C87.7801 22.0371 87.7201 22.0252 87.6642 22.0021C87.6083 21.979 87.5575 21.9451 87.5148 21.9025L87.1446 21.5352C86.9518 21.351 86.709 21.2265 86.446 21.1769C86.1829 21.1273 85.911 21.1549 85.6635 21.2561L85.2784 21.4177C85.0131 21.5164 84.7845 21.693 84.623 21.924C84.4616 22.155 84.3751 22.4294 84.375 22.7104V23.2099C84.375 23.2697 84.3631 23.3289 84.3401 23.3842C84.317 23.4394 84.2832 23.4896 84.2405 23.5319C84.1979 23.5742 84.1473 23.6077 84.0916 23.6306C84.0359 23.6535 83.9762 23.6653 83.9159 23.6653H82.0202C81.9599 23.6653 81.9002 23.6535 81.8445 23.6306C81.7888 23.6077 81.7381 23.5742 81.6955 23.5319C81.6529 23.4896 81.6191 23.4394 81.596 23.3842C81.5729 23.3289 81.561 23.2697 81.561 23.2099V22.7692C81.5495 22.4909 81.4584 22.2217 81.2984 21.9928C81.1385 21.7639 80.9162 21.5849 80.6576 21.4765L80.2577 21.3002C80.0083 21.211 79.7392 21.1898 79.4787 21.2389C79.2182 21.288 78.9757 21.4055 78.7767 21.5793L78.4212 21.9319C78.3785 21.9745 78.3278 22.0084 78.2719 22.0314C78.2159 22.0545 78.156 22.0664 78.0954 22.0664C78.0348 22.0664 77.9748 22.0545 77.9189 22.0314C77.863 22.0084 77.8122 21.9745 77.7696 21.9319L76.4514 20.6392C76.4084 20.5968 76.3743 20.5465 76.351 20.491C76.3278 20.4356 76.3158 20.3761 76.3158 20.316C76.3158 20.2559 76.3278 20.1964 76.351 20.141C76.3743 20.0855 76.4084 20.0351 76.4514 19.9928L76.8217 19.6256C77.0084 19.4348 77.1335 19.1931 77.1809 18.9314C77.2284 18.6697 77.1962 18.4 77.0883 18.1566C77.0883 18.0244 76.9846 17.8922 76.9402 17.7746C76.8407 17.5115 76.6626 17.2847 76.4297 17.1245C76.1968 16.9644 75.9202 16.8786 75.6369 16.8786H75.0593C74.9375 16.8786 74.8207 16.8306 74.7346 16.7452C74.6485 16.6598 74.6001 16.5439 74.6001 16.4232V14.5429C74.6001 14.4221 74.6485 14.3063 74.7346 14.2209C74.8207 14.1355 74.9375 14.0875 75.0593 14.0875H75.5628C75.8433 14.076 76.1148 13.9857 76.3456 13.827C76.5763 13.6684 76.7569 13.4479 76.8661 13.1914C76.8661 13.0592 76.9698 12.9417 77.029 12.8095C77.119 12.562 77.1404 12.2952 77.0909 12.0368C77.0414 11.7784 76.9228 11.5379 76.7476 11.3405L76.3774 10.9879C76.3344 10.9456 76.3003 10.8952 76.277 10.8398C76.2537 10.7843 76.2417 10.7248 76.2417 10.6647C76.2417 10.6047 76.2537 10.5452 76.277 10.4897C76.3003 10.4342 76.3344 10.3839 76.3774 10.3416L77.6955 9.03416C77.7382 8.99152 77.7889 8.95768 77.8449 8.93458C77.9008 8.91149 77.9608 8.8996 78.0213 8.8996C78.0819 8.8996 78.1419 8.91149 78.1978 8.93458C78.2537 8.95768 78.3045 8.99152 78.3472 9.03416L78.7026 9.4014C78.897 9.58321 79.1406 9.70501 79.4035 9.75196C79.6665 9.79891 79.9375 9.76898 80.1837 9.66582L80.5687 9.51892C80.8274 9.41055 81.0496 9.23149 81.2096 9.00261C81.3695 8.77373 81.4606 8.50447 81.4722 8.22622V7.72676C81.4721 7.60459 81.52 7.4872 81.6057 7.39945C81.6914 7.31171 81.8082 7.2605 81.9313 7.25668H83.7826C83.9057 7.2605 84.0225 7.31171 84.1082 7.39945C84.1939 7.4872 84.2418 7.60459 84.2417 7.72676V8.22622C84.2418 8.50728 84.3283 8.78163 84.4897 9.01263C84.6512 9.24362 84.8798 9.42025 85.1452 9.51892L85.5302 9.66582C85.7764 9.76898 86.0474 9.79891 86.3104 9.75196C86.5733 9.70501 86.8169 9.58321 87.0113 9.4014L87.3667 9.03416C87.4094 8.99152 87.4602 8.95768 87.5161 8.93458C87.572 8.91149 87.632 8.8996 87.6926 8.8996C87.7531 8.8996 87.8131 8.91149 87.869 8.93458C87.9249 8.95768 87.9757 8.99152 88.0184 9.03416L89.3365 10.3416C89.3795 10.3839 89.4136 10.4342 89.4369 10.4897C89.4602 10.5452 89.4722 10.6047 89.4722 10.6647C89.4722 10.7248 89.4602 10.7843 89.4369 10.8398C89.4136 10.8952 89.3795 10.9456 89.3365 10.9879L88.9663 11.3405C88.7911 11.5379 88.6725 11.7784 88.623 12.0368C88.5735 12.2952 88.5949 12.562 88.6848 12.8095C88.6848 12.9417 88.8033 13.0592 88.8478 13.1914C88.957 13.4479 89.1376 13.6684 89.3683 13.827C89.5991 13.9857 89.8705 14.076 90.1511 14.0875H90.6546C90.7764 14.0875 90.8932 14.1355 90.9793 14.2209C91.0654 14.3063 91.1138 14.4221 91.1138 14.5429V16.3791H91.2619Z" fill="#231F20"/>
<path d="M87.0853 15.2772C87.0853 15.1596 87.0853 15.0568 87.0853 14.9393C87.0853 14.8218 87.0853 14.7043 87.0853 14.6014C87.0853 14.4986 87.0853 14.4545 87.0853 14.3811L86.9965 14.0873V13.911C86.9965 13.7641 86.8632 13.6172 86.7891 13.4703C86.6697 13.2574 86.5309 13.0558 86.3744 12.868L86.1819 12.6477L85.7968 12.4861L85.6635 12.3539L85.4858 12.2217C84.7711 11.6818 83.896 11.3925 82.9976 11.399H82.4052L81.9609 11.4872C81.062 11.7116 80.2643 12.2273 79.6944 12.9525C79.1245 13.6776 78.815 14.5707 78.815 15.4902C78.815 16.4096 79.1245 17.3027 79.6944 18.0279C80.2643 18.753 81.062 19.2687 81.9609 19.4932L82.4496 19.596H82.9828H83.3975H83.7382H83.8714H84.1084H84.301H84.5083L84.686 19.5225L84.9822 19.0965C85.4129 18.8649 85.8112 18.5785 86.1671 18.2445C86.2588 18.1535 86.343 18.0552 86.4188 17.9507C86.774 17.3705 87.0106 16.7266 87.1149 16.0557C87.1077 15.9677 87.1077 15.8793 87.1149 15.7913C87.1071 15.7082 87.1071 15.6246 87.1149 15.5416C87.1001 15.4241 87.0853 15.3359 87.0853 15.2772ZM82.1238 12.3392C82.387 12.2824 82.6545 12.248 82.9236 12.2364H83.3235H83.5012H83.7974H83.9011C84.1418 12.3127 84.3748 12.4111 84.5972 12.5302L84.7156 12.6036L84.923 12.7358L85.0415 12.824C85.1324 12.8946 85.2167 12.9733 85.2932 13.059L85.3969 13.1618L85.545 13.3381L85.6487 13.4703L85.782 13.676L85.856 13.7788C85.856 13.8963 85.9597 14.0138 86.0042 14.1167V14.2636C86.0107 14.3467 86.0107 14.4302 86.0042 14.5133C86.0111 14.5571 86.0111 14.6017 86.0042 14.6455C86.0185 14.7724 86.0185 14.9005 86.0042 15.0274C86.0123 15.0612 86.0123 15.0965 86.0042 15.1303V15.5563V15.8941C85.9174 16.3651 85.7262 16.811 85.4445 17.1997C85.1627 17.5884 84.7974 17.9101 84.375 18.1417L84.1973 18.2298C83.9278 18.3485 83.6441 18.4324 83.3531 18.4796H82.4052C82.2822 18.4934 82.158 18.4934 82.035 18.4796C81.3393 18.3008 80.7232 17.898 80.2834 17.3343C79.8436 16.7706 79.605 16.0781 79.605 15.3653C79.605 14.6525 79.8436 13.96 80.2834 13.3963C80.7232 12.8326 81.3393 12.4298 82.035 12.251L82.1238 12.3392Z" fill="#231F20"/>
<path d="M49.5409 16.0707H49.2891V16.4527H49.4372V16.8934H49.1262L49.0373 17.4663H48.5782L48.6967 16.8934H48.3116L48.2228 17.4663H47.7488L47.8525 16.8934H47.6303V16.4527H47.9562L48.0302 16.0707H47.7488V15.6447H48.0895L48.1783 15.0571H48.6374L48.5486 15.6447H48.9337L49.0225 15.0571H49.4372L49.3483 15.6447H49.5409V16.0707ZM48.7707 16.4527V16.0707H48.3857V16.4527H48.7707Z" fill="black"/>
<path d="M50.9182 15.5564C51.0484 15.5524 51.178 15.5747 51.2992 15.6218C51.4205 15.6689 51.5308 15.7399 51.6236 15.8306C51.7163 15.9212 51.7896 16.0296 51.8389 16.1491C51.8882 16.2686 51.9126 16.3968 51.9105 16.526C51.913 16.6561 51.8894 16.7854 51.8411 16.9065C51.7928 17.0275 51.7207 17.1378 51.6291 17.2311C51.5362 17.3233 51.4251 17.3956 51.3028 17.4436C51.1806 17.4916 51.0497 17.5143 50.9182 17.5102C50.7072 17.5118 50.5024 17.4389 50.3406 17.3045V17.4514H49.9704V14.9395H50.4739V15.7033C50.6051 15.6138 50.7591 15.5629 50.9182 15.5564ZM50.5184 16.8932C50.6188 16.9866 50.751 17.039 50.8886 17.0401C51.0217 17.0382 51.149 16.9856 51.2441 16.8932C51.2934 16.8458 51.3321 16.7885 51.3576 16.7252C51.3831 16.662 51.3949 16.5941 51.3922 16.526C51.3902 16.4377 51.3646 16.3515 51.3181 16.2762C51.2843 16.1932 51.2211 16.1253 51.1404 16.0853C51.0579 16.0635 50.9711 16.0635 50.8886 16.0853C50.8014 16.0615 50.7093 16.0615 50.622 16.0853C50.5448 16.1298 50.4829 16.1963 50.4443 16.2762C50.3978 16.3515 50.3723 16.4377 50.3703 16.526C50.373 16.5975 50.3917 16.6675 50.425 16.731C50.4583 16.7945 50.5054 16.8499 50.5628 16.8932H50.5184Z" fill="black"/>
<path d="M53.8803 17.2753C53.7954 17.3547 53.6953 17.4164 53.5859 17.4568C53.4765 17.4971 53.3601 17.5153 53.2435 17.5104C53.1266 17.518 53.0094 17.501 52.8997 17.4605C52.7899 17.42 52.69 17.3569 52.6066 17.2753C52.5233 17.1989 52.4576 17.1056 52.4141 17.0016C52.3707 16.8976 52.3504 16.7855 52.3549 16.673V15.6007H52.8584V16.6143C52.8561 16.7259 52.8927 16.8348 52.9621 16.9228C52.9984 16.9603 53.0422 16.9902 53.0905 17.0104C53.1389 17.0306 53.191 17.0408 53.2435 17.0403C53.3237 17.0164 53.3922 16.9642 53.436 16.8934C53.5054 16.8055 53.542 16.6965 53.5397 16.5849V15.5713H54.0432V16.6437C54.0601 16.7544 54.0543 16.8674 54.0263 16.9759C53.9983 17.0844 53.9487 17.1862 53.8803 17.2753Z" fill="black"/>
<path d="M55.1688 17.5104C55.0255 17.514 54.8834 17.4838 54.7541 17.4222C54.6386 17.3738 54.5405 17.2919 54.4728 17.1872C54.4101 17.0857 54.3792 16.9682 54.3839 16.8493H54.8726C54.8553 16.8917 54.8553 16.9391 54.8726 16.9815C54.8825 17.0028 54.8968 17.0217 54.9147 17.0369C54.9326 17.0521 54.9536 17.0633 54.9763 17.0697H55.1392H55.2725H55.3614C55.3683 17.0534 55.3719 17.0359 55.3719 17.0182C55.3719 17.0006 55.3683 16.9831 55.3614 16.9668C55.3609 16.9387 55.3523 16.9112 55.3365 16.8878C55.3208 16.8643 55.2986 16.8459 55.2725 16.8346H54.9911H54.8134H54.6357C54.5744 16.8126 54.5188 16.7775 54.4728 16.7318C54.4236 16.6947 54.3874 16.6434 54.3691 16.5849C54.352 16.5124 54.352 16.437 54.3691 16.3645C54.3655 16.2821 54.3825 16.2 54.4187 16.1257C54.4549 16.0513 54.5091 15.987 54.5764 15.9385C54.7306 15.8263 54.9186 15.7694 55.1096 15.777C55.3055 15.7672 55.4989 15.8242 55.6576 15.9385C55.7238 15.9947 55.7767 16.0646 55.8125 16.1433C55.8483 16.222 55.8662 16.3076 55.8649 16.3939H55.3614C55.3614 16.247 55.2725 16.1736 55.0948 16.1736C55.0319 16.1552 54.9651 16.1552 54.9023 16.1736C54.8918 16.1941 54.8864 16.2167 54.8864 16.2397C54.8864 16.2626 54.8918 16.2853 54.9023 16.3058H54.9911H55.08H55.1985H55.3762H55.4799H55.5687H55.6576H55.7316V16.3939C55.7335 16.4282 55.7335 16.4625 55.7316 16.4968V16.8934C55.7351 16.98 55.7182 17.0663 55.6822 17.1454C55.6462 17.2244 55.5922 17.2941 55.5243 17.3488C55.4194 17.4281 55.298 17.4833 55.1688 17.5104Z" fill="black"/>
<path d="M56.3092 15.4247V14.9546H56.8424V15.4247H56.3092ZM56.3092 17.5106V15.6009H56.8424V17.4519L56.3092 17.5106Z" fill="black"/>
<path d="M58.3235 15.5565C58.4187 15.5535 58.5133 15.5718 58.6005 15.6099C58.6876 15.648 58.765 15.7051 58.827 15.7768C58.9533 15.935 59.0165 16.1336 59.0047 16.335V17.4515H58.5012V16.4085C58.5012 16.1441 58.3975 15.9972 58.1754 15.9972C58.1019 15.9839 58.0267 15.9839 57.9532 15.9972C57.8926 16.0457 57.8423 16.1056 57.8051 16.1734C57.7883 16.2558 57.7883 16.3408 57.8051 16.4232V17.3927H57.3015V15.6005H57.6422L57.7459 15.8356C57.7775 15.7893 57.8177 15.7494 57.8643 15.7181L58.0124 15.6299H58.1754L58.3235 15.5565Z" fill="black"/>
<path d="M61.2856 16.5261C61.2929 16.5748 61.2929 16.6243 61.2856 16.673H59.8045C59.8202 16.7844 59.8722 16.8876 59.9526 16.9668C60.0413 17.0356 60.1511 17.0719 60.2636 17.0696C60.3369 17.0847 60.4125 17.0847 60.4858 17.0696C60.5574 17.0362 60.615 16.979 60.6487 16.908H61.2856C61.2314 17.1076 61.1048 17.2803 60.9301 17.3928C60.7662 17.5095 60.569 17.5712 60.3673 17.5691C60.2379 17.5748 60.1087 17.5528 59.9886 17.5047C59.8685 17.4565 59.7603 17.3833 59.6712 17.29C59.489 17.0999 59.3881 16.8472 59.3898 16.5849C59.3754 16.4825 59.3754 16.3787 59.3898 16.2764C59.4302 16.1789 59.4798 16.0855 59.5379 15.9973C59.5942 15.9218 59.6588 15.8529 59.7304 15.7916L59.997 15.6594C60.1051 15.6441 60.2148 15.6441 60.3229 15.6594C60.495 15.6551 60.6649 15.6981 60.8139 15.7836C60.9629 15.8692 61.0851 15.994 61.1671 16.1442C61.2303 16.263 61.2705 16.3926 61.2856 16.5261ZM60.3229 15.9826C60.2173 15.9804 60.1136 16.0112 60.0267 16.0707C59.9493 16.1403 59.8972 16.2332 59.8786 16.3351H60.782C60.7629 16.2643 60.7274 16.1989 60.6783 16.1442C60.6387 16.0882 60.5814 16.0468 60.5154 16.0266C60.4693 16.0029 60.419 15.9879 60.3673 15.9826H60.3229Z" fill="black"/>
<path d="M62.3519 17.5104C62.2086 17.5141 62.0664 17.4839 61.9372 17.4223C61.8217 17.3739 61.7236 17.292 61.6558 17.1873C61.5932 17.0858 61.5623 16.9683 61.5669 16.8494H62.0557C62.0384 16.8918 62.0384 16.9392 62.0557 16.9816C62.0782 17.0226 62.1151 17.0539 62.1594 17.0697H62.3223H62.4556C62.4843 17.0798 62.5157 17.0798 62.5444 17.0697C62.5514 17.0535 62.5549 17.036 62.5549 17.0183C62.5549 17.0007 62.5514 16.9832 62.5444 16.9669C62.544 16.9387 62.5353 16.9113 62.5196 16.8879C62.5038 16.8644 62.4816 16.846 62.4556 16.8347H62.189H61.9964H61.8187C61.7592 16.8093 61.7042 16.7746 61.6558 16.7319C61.6067 16.6948 61.5704 16.6435 61.5521 16.585C61.5351 16.5125 61.5351 16.4371 61.5521 16.3646C61.5521 16.2827 61.5707 16.2018 61.6066 16.1281C61.6425 16.0543 61.6948 15.9895 61.7595 15.9386C61.9192 15.8264 62.1118 15.7696 62.3075 15.777C62.4985 15.7695 62.6865 15.8264 62.8406 15.9386C62.9094 15.9925 62.9641 16.062 63.0002 16.1413C63.0363 16.2205 63.0527 16.3072 63.048 16.394H62.6185C62.6185 16.2471 62.5148 16.1737 62.3371 16.1737C62.2791 16.1565 62.2173 16.1565 62.1594 16.1737C62.15 16.1944 62.1451 16.217 62.1451 16.2398C62.1451 16.2626 62.15 16.2851 62.1594 16.3059H62.2482H62.3371H62.4556H62.6481H62.737H62.8258H62.9147V16.394C62.9235 16.4277 62.9235 16.4631 62.9147 16.4968C62.9147 16.4968 62.9147 16.5703 62.9147 16.6144C62.919 16.7026 62.9009 16.7906 62.8621 16.8701C62.8233 16.9497 62.765 17.0183 62.6925 17.0697C62.6318 17.2502 62.5119 17.4054 62.3519 17.5104Z" fill="black"/>
<path d="M64.1588 17.5104C64.0204 17.5123 63.8834 17.4822 63.7589 17.4223C63.6412 17.3774 63.5421 17.2947 63.4775 17.1873C63.4105 17.0871 63.3745 16.9696 63.3738 16.8494H63.8774C63.8672 16.8929 63.8672 16.9381 63.8774 16.9816C63.9064 17.0228 63.9479 17.0537 63.9959 17.0697H64.1588H64.2773H64.3809C64.3888 17.0537 64.3929 17.0361 64.3929 17.0183C64.3929 17.0005 64.3888 16.9829 64.3809 16.9669C64.3805 16.9387 64.3718 16.9113 64.3561 16.8879C64.3403 16.8644 64.3181 16.846 64.2921 16.8347H64.0255H63.8329H63.67C63.6069 16.8167 63.5503 16.781 63.5071 16.7319C63.4571 16.6923 63.4166 16.6421 63.3886 16.585C63.3788 16.5119 63.3788 16.4378 63.3886 16.3646C63.388 16.2811 63.4078 16.1986 63.4466 16.1244C63.4853 16.0501 63.5416 15.9864 63.6108 15.9386C63.7649 15.8264 63.9529 15.7695 64.144 15.777C64.3396 15.7696 64.5322 15.8264 64.692 15.9386C64.7581 15.9947 64.811 16.0647 64.8469 16.1434C64.8827 16.2221 64.9006 16.3077 64.8993 16.394H64.4106C64.4106 16.2471 64.3217 16.1737 64.1291 16.1737C64.0712 16.1565 64.0094 16.1565 63.9514 16.1737C63.941 16.1942 63.9356 16.2168 63.9356 16.2398C63.9356 16.2627 63.941 16.2854 63.9514 16.3059H64.0551H64.1588H64.3513H64.455H64.5438H64.6327V16.394C64.6415 16.4277 64.6415 16.4631 64.6327 16.4968C64.64 16.5357 64.64 16.5755 64.6327 16.6144C64.6362 16.701 64.6193 16.7873 64.5833 16.8663C64.5473 16.9454 64.4932 17.015 64.4254 17.0697C64.3818 17.2393 64.2891 17.3925 64.1588 17.5104Z" fill="black"/>
<path d="M29.9911 80.5739C39.8393 80.5739 47.8229 72.6553 47.8229 62.8873C47.8229 53.1193 39.8393 45.2007 29.9911 45.2007C20.1429 45.2007 12.1594 53.1193 12.1594 62.8873C12.1594 72.6553 20.1429 80.5739 29.9911 80.5739Z" fill="white" stroke="#020202" stroke-width="0.56" stroke-miterlimit="10"/>
<path d="M34.7453 59.8022V62.0351H30.8501V70.849H27.888V62.0351H23.9485V59.8022H34.7453Z" fill="white" stroke="#020202" stroke-width="0.56" stroke-miterlimit="10"/>
<path d="M30.8501 57.261H23.3709V55.792H35.0711V57.261H30.8501Z" fill="#020202"/>
</svg>
