<svg width="101" height="65" viewBox="0 0 101 65" fill="none" xmlns="http://www.w3.org/2000/svg">
<path d="M27.2934 23.2305L23.5507 26.957L27.2934 23.2305ZM32.7771 19.9816L20.2667 32.4376L32.7771 19.9816ZM36.1653 18.8709L19.1721 35.7489L36.1653 18.8709ZM38.8654 18.3519L18.6508 38.4685L38.8654 18.3519ZM41.2841 18.1754L18.4423 40.887L41.2841 18.1754ZM43.463 18.2169L18.5153 43.0564L43.463 18.2169ZM45.4646 18.4453L18.7447 45.0494L45.4646 18.4453ZM47.3307 18.8086L19.1095 46.9075L47.3307 18.8086ZM49.0613 19.2965L19.5995 48.6409L49.0613 19.2965ZM50.6981 19.8881L20.1938 50.2602L50.6981 19.8881ZM52.2306 20.5836L20.8818 51.7965L52.2306 20.5836ZM53.6797 21.3621L21.6742 53.2289L53.6797 21.3621ZM55.035 22.2236L22.5395 54.5887L55.035 22.2236ZM56.3277 23.1579L23.4777 55.8655L56.3277 23.1579ZM57.5371 24.1751L24.4994 57.0695L57.5371 24.1751ZM58.663 25.2754L25.5941 58.1906L58.663 25.2754ZM59.7264 26.438L26.7825 59.2286L59.7264 26.438ZM60.7064 27.6732L28.0127 60.2666L60.7064 27.6732ZM61.6134 28.9915L29.295 61.1697L61.6134 28.9915ZM62.437 30.3928L30.7441 61.9482L62.437 30.3928ZM63.1772 31.846L32.235 62.6955L63.1772 31.846ZM63.8235 33.4549L33.8092 63.3806L63.8235 33.4549ZM64.3656 35.1261L35.4981 63.8685L64.3656 35.1261ZM64.8035 36.8803L37.2912 64.3045L64.8035 36.8803ZM65.0954 38.8421L39.2199 64.5951L65.0954 38.8421ZM65.2309 40.9182L41.3154 64.7923L65.2309 40.9182ZM65.1788 43.2018L43.5985 64.6885L65.1788 43.2018ZM64.8452 45.7345L46.1631 64.346L64.8452 45.7345ZM64.0737 48.7759L49.1656 63.5779L64.0737 48.7759ZM62.364 52.658L53.1063 61.8755L62.364 52.658ZM41.8471 18.165C37.2201 18.165 32.697 19.5311 28.8499 22.0906C25.0027 24.6501 22.0042 28.2879 20.2335 32.5441C18.4629 36.8003 17.9996 41.4838 18.9023 46.0021C19.8049 50.5205 22.033 54.6709 25.3048 57.9285C28.5765 61.186 32.745 63.4045 37.2831 64.3032C41.8211 65.202 46.5249 64.7407 50.7997 62.9777C55.0744 61.2148 58.7281 58.2292 61.2987 54.3987C63.8693 50.5683 65.2414 46.0648 65.2414 41.4579C65.2414 35.2803 62.7766 29.3556 58.3893 24.9874C54.002 20.6191 48.0516 18.165 41.8471 18.165Z" stroke="#27AE60" stroke-width="0.5" stroke-miterlimit="10"/>
<path d="M4.118 58.8137C5.81652 58.8137 7.19345 57.4427 7.19345 55.7516C7.19345 54.0604 5.81652 52.6895 4.118 52.6895C2.41947 52.6895 1.04254 54.0604 1.04254 55.7516C1.04254 57.4427 2.41947 58.8137 4.118 58.8137Z" stroke="#27AE60" stroke-width="2" stroke-miterlimit="10"/>
<path d="M90.4216 21.4947V54.0674C90.4216 54.462 90.2648 54.8407 89.9855 55.1207C89.7063 55.4007 89.3271 55.5594 88.9307 55.5621H35.5012C35.2379 55.5635 34.9789 55.4955 34.7506 55.3649C34.5227 55.2327 34.3334 55.0433 34.2018 54.8157C34.0701 54.5881 34.0005 54.3301 34 54.0674V21.4947C34 21.0983 34.1582 20.7181 34.4397 20.4378C34.7212 20.1575 35.1031 20 35.5012 20H88.9307C89.3271 20.0027 89.7063 20.1614 89.9855 20.4414C90.2648 20.7215 90.4216 21.1001 90.4216 21.4947Z" fill="white" stroke="#020202" stroke-width="0.63" stroke-miterlimit="10"/>
<path d="M57.8 31.528L55.6236 44H59.06L61.2364 31.528H57.8ZM52.76 31.528L49.4 40.0059L49.0182 38.7248C47.9266 36.6119 46.2778 34.8286 44.2454 33.5627L47.3382 43.9623H51.1564L56.2727 31.528H52.76ZM47.72 32.3947C47.6385 32.0785 47.4412 31.8034 47.1662 31.6225C46.8912 31.4416 46.558 31.3676 46.2309 31.415H41V31.528C42.7521 31.8461 44.3988 32.5823 45.7964 33.6725C47.194 34.7628 48.3001 36.1739 49.0182 37.7828L47.72 32.3947ZM68.1855 33.9018C69.0729 33.8789 69.956 34.0326 70.7818 34.354H71.0873L71.5455 31.528C70.5557 31.1679 69.5076 30.9891 68.4527 31.0005C65.0546 31.0005 62.6873 32.6961 62.6491 35.1076C62.6491 36.8785 64.3673 37.8959 65.6655 38.4988C66.9636 39.1016 67.46 39.4784 67.46 40.0436C67.46 40.6088 66.3909 41.2494 65.3982 41.2494C64.2819 41.2726 63.1741 41.0539 62.1527 40.6088L61.6945 40.3827L61.2364 43.171C62.4608 43.6097 63.752 43.8391 65.0546 43.8493C68.8727 43.8493 71.0109 42.1914 71.0491 39.5915C71.0491 38.1596 70.1327 37.1046 68.1473 36.2003C66.9636 35.6351 66.2 35.2583 66.2382 34.6554C66.2764 34.0526 66.8491 33.7511 68.1855 33.7511V33.9018ZM80.3654 31.528H77.7309C77.3551 31.4798 76.9735 31.5528 76.6432 31.7361C76.3129 31.9195 76.0515 32.2034 75.8982 32.5454L70.82 43.8493H74.4091C74.4091 43.8493 75.02 42.3044 75.1346 41.9653H79.5254C79.5254 42.3798 79.9454 43.8116 79.9454 43.8116H83L80.3654 31.528ZM76.1273 39.5538L77.5018 36.0496C77.5018 36.0496 77.7691 35.3337 77.96 34.8815L78.1891 35.9365L78.9909 39.7045L76.1273 39.5538Z" fill="black"/>
</svg>
